# xmcd
#
# Track frame offsets:
#	150
#	22416
#	40515
#	61071
#	83224
#	117444
#
# Disc length: 3517 seconds
#
# Revision: 3
# Processed by: cddbd v1.5.1PL2 Copyright (c) Steve Scherf et al.
# Submitted via: EasyCDDAExtractor 9.1.1.5
#
DISCID=470dbb06
DTITLE=Corneille - Parce Qu'On Vient De Loin
DYEAR=2003
DGENRE=R&B
TTITLE0=Sans Rancune (Version Acoustique)
TTITLE1=Parce Qu'On Vient De Loin (Version Acoustique)
TTITLE2=Seul Au Monde (Version Acoustique)
TTITLE3=Rêves De Star (Version Acoustique)
TTITLE4=Qu'est-Ce Que Tu Te Tais (Version Acoustique)
TTITLE5=Data
EXTD=YEAR: 2003
EXTT0=
EXTT1=
EXTT2=
EXTT3=
EXTT4=
EXTT5=
PLAYORDER=
